<svg width="81" height="81" viewBox="0 0 81 81" fill="none" xmlns="http://www.w3.org/2000/svg">
<path d="M66.4 51C65.9341 52.0557 65.7951 53.2267 66.001 54.3621C66.2069 55.4974 66.7481 56.5451 67.555 57.37L67.765 57.58C68.4158 58.2301 68.9322 59.0021 69.2844 59.8519C69.6367 60.7017 69.818 61.6126 69.818 62.5325C69.818 63.4524 69.6367 64.3633 69.2844 65.2131C68.9322 66.0629 68.4158 66.8349 67.765 67.485C67.1149 68.1358 66.3429 68.6522 65.4931 69.0044C64.6433 69.3567 63.7324 69.538 62.8125 69.538C61.8926 69.538 60.9817 69.3567 60.1319 69.0044C59.2821 68.6522 58.5101 68.1358 57.86 67.485L57.65 67.275C56.8251 66.4681 55.7774 65.9268 54.6421 65.721C53.5067 65.5151 52.3357 65.6541 51.28 66.12C50.2448 66.5637 49.3619 67.3004 48.7401 68.2394C48.1182 69.1784 47.7845 70.2787 47.78 71.405V72C47.78 73.8565 47.0425 75.637 45.7297 76.9497C44.417 78.2625 42.6365 79 40.78 79C38.9235 79 37.143 78.2625 35.8303 76.9497C34.5175 75.637 33.78 73.8565 33.78 72V71.685C33.7529 70.5265 33.3779 69.403 32.7038 68.4605C32.0297 67.5179 31.0876 66.8 30 66.4C28.9443 65.9341 27.7733 65.7951 26.6379 66.001C25.5026 66.2068 24.4549 66.7481 23.63 67.555L23.42 67.765C22.7699 68.4158 21.9979 68.9322 21.1481 69.2844C20.2983 69.6367 19.3874 69.818 18.4675 69.818C17.5476 69.818 16.6367 69.6367 15.7869 69.2844C14.9371 68.9322 14.1651 68.4158 13.515 67.765C12.8642 67.1149 12.3479 66.3429 11.9956 65.4931C11.6433 64.6433 11.462 63.7324 11.462 62.8125C11.462 61.8926 11.6433 60.9817 11.9956 60.1319C12.3479 59.2821 12.8642 58.5101 13.515 57.86L13.725 57.65C14.5319 56.8251 15.0732 55.7774 15.279 54.6421C15.4849 53.5067 15.3459 52.3357 14.88 51.28C14.4363 50.2448 13.6996 49.3619 12.7606 48.7401C11.8216 48.1182 10.7213 47.7845 9.595 47.78H9C7.14348 47.78 5.36301 47.0425 4.05025 45.7297C2.7375 44.417 2 42.6365 2 40.78C2 38.9235 2.7375 37.143 4.05025 35.8303C5.36301 34.5175 7.14348 33.78 9 33.78H9.315C10.4735 33.7529 11.597 33.3779 12.5395 32.7038C13.4821 32.0297 14.2 31.0876 14.6 30C15.0659 28.9443 15.2049 27.7733 14.999 26.6379C14.7932 25.5026 14.2519 24.4549 13.445 23.63L13.235 23.42C12.5842 22.7699 12.0679 21.9979 11.7156 21.1481C11.3633 20.2983 11.182 19.3874 11.182 18.4675C11.182 17.5476 11.3633 16.6367 11.7156 15.7869C12.0679 14.9371 12.5842 14.1651 13.235 13.515C13.8851 12.8642 14.6571 12.3479 15.5069 11.9956C16.3567 11.6433 17.2676 11.462 18.1875 11.462C19.1074 11.462 20.0183 11.6433 20.8681 11.9956C21.7179 12.3479 22.4899 12.8642 23.14 13.515L23.35 13.725C24.1749 14.5319 25.2226 15.0731 26.3579 15.279C27.4933 15.4849 28.6643 15.3459 29.72 14.88H30C31.0352 14.4363 31.9181 13.6996 32.5399 12.7606C33.1618 11.8216 33.4955 10.7213 33.5 9.595V9C33.5 7.14348 34.2375 5.36301 35.5503 4.05025C36.863 2.7375 38.6435 2 40.5 2C42.3565 2 44.137 2.7375 45.4497 4.05025C46.7625 5.36301 47.5 7.14348 47.5 9V9.315C47.5045 10.4413 47.8382 11.5416 48.4601 12.4806C49.0819 13.4196 49.9648 14.1563 51 14.6C52.0557 15.0659 53.2267 15.2049 54.3621 14.999C55.4974 14.7931 56.5451 14.2519 57.37 13.445L57.58 13.235C58.2301 12.5842 59.0021 12.0679 59.8519 11.7156C60.7017 11.3633 61.6126 11.182 62.5325 11.182C63.4524 11.182 64.3633 11.3633 65.2131 11.7156C66.0629 12.0679 66.8349 12.5842 67.485 13.235C68.1358 13.8851 68.6522 14.6571 69.0044 15.5069C69.3567 16.3567 69.538 17.2676 69.538 18.1875C69.538 19.1074 69.3567 20.0183 69.0044 20.8681C68.6522 21.7179 68.1358 22.4899 67.485 23.14L67.275 23.35C66.4681 24.1749 65.9269 25.2226 65.721 26.3579C65.5151 27.4933 65.6541 28.6643 66.12 29.72V30C66.5637 31.0352 67.3004 31.9181 68.2394 32.5399C69.1784 33.1618 70.2787 33.4955 71.405 33.5H72C73.8565 33.5 75.637 34.2375 76.9497 35.5503C78.2625 36.863 79 38.6435 79 40.5C79 42.3565 78.2625 44.137 76.9497 45.4497C75.637 46.7625 73.8565 47.5 72 47.5H71.685C70.5587 47.5045 69.4584 47.8382 68.5194 48.4601C67.5804 49.0819 66.8437 49.9648 66.4 51Z" stroke="black" stroke-width="4" stroke-linecap="round" stroke-linejoin="round"/>
</svg>
