<svg width="120" height="40" viewBox="0 0 120 40" fill="none" xmlns="http://www.w3.org/2000/svg">
  <rect width="120" height="40" rx="4" fill="#4F46E5"/>
  <path d="M20.9375 28H16.9062V13.625H11.2812V10.25H26.5625V13.625H20.9375V28ZM38.7188 28.2812C36.5312 28.2812 34.7656 27.5469 33.4219 26.0781C32.0781 24.6094 31.4062 22.6719 31.4062 20.2656V19.7031C31.4062 18.0781 31.7031 16.6406 32.2969 15.3906C32.8906 14.1406 33.7344 13.1719 34.8281 12.4844C35.9219 11.7969 37.1562 11.4531 38.5312 11.4531C40.5938 11.4531 42.2031 12.1562 43.3594 13.5625C44.5156 14.9688 45.0938 16.9375 45.0938 19.4688V21.0625H35.5C35.625 22.2188 36.0469 23.1406 36.7656 23.8281C37.4844 24.5156 38.3906 24.8594 39.4844 24.8594C41.0469 24.8594 42.3125 24.2344 43.2812 22.9844L44.8125 25.2344C44.1875 26.1719 43.3438 26.9062 42.2812 27.4375C41.2188 27.9688 40.0312 28.2344 38.7188 28.2812ZM38.5156 14.8906C37.6094 14.8906 36.8594 15.1875 36.2656 15.7812C35.6719 16.375 35.2969 17.2344 35.1406 18.3594H41.6562V18.0625C41.6094 16.9688 41.3125 16.1406 40.7656 15.5781C40.2188 15.1094 39.4688 14.8906 38.5156 14.8906ZM59.9844 28C59.8281 27.6875 59.7031 27.1875 59.6094 26.5H59.4844C58.5781 27.6875 57.3125 28.2812 55.6875 28.2812C54.125 28.2812 52.8594 27.8281 51.8906 26.9219C50.9219 26.0156 50.4375 24.8281 50.4375 23.3594C50.4375 21.7031 51.0469 20.4375 52.2656 19.5625C53.4844 18.6875 55.2344 18.25 57.5156 18.25H59.3125V17.4219C59.3125 16.7344 59.1094 16.1875 58.7031 15.7812C58.2969 15.375 57.6875 15.1719 56.875 15.1719C56.1562 15.1719 55.5781 15.3281 55.1406 15.6406C54.7031 15.9531 54.4844 16.375 54.4844 16.9062H50.4219C50.4219 16.0312 50.7188 15.2344 51.3125 14.5156C51.9062 13.7969 52.7344 13.2344 53.7969 12.8281C54.8594 12.4219 56.0469 12.2188 57.3594 12.2188C59.2969 12.2188 60.8438 12.7031 62 13.6719C63.1562 14.6406 63.7344 16 63.7344 17.75V24.3594C63.7344 25.7969 63.9219 26.9062 64.2969 27.6875V28H59.9844ZM56.7344 25.2344C57.3594 25.2344 57.9375 25.0938 58.4688 24.8125C59 24.5312 59.3906 24.1406 59.6406 23.6406V20.5781H58.1875C56.0625 20.5781 54.9375 21.3594 54.8125 22.9219L54.7969 23.1562C54.7969 23.6562 54.9844 24.0625 55.3594 24.375C55.7344 24.9375 56.1875 25.2344 56.7344 25.2344ZM77.2969 16.5H73.1562C73.3125 14.7188 73.9375 13.3281 75.0312 12.3281C76.125 11.3281 77.6094 10.8281 79.4844 10.8281C81.4531 10.8281 82.9688 11.3281 84.0312 12.3281C85.0938 13.3281 85.625 14.7344 85.625 16.5469V24.7969C85.625 26.1719 85.8125 27.2344 86.1875 27.9844V28H81.8281C81.6094 27.6562 81.4531 27.1094 81.3594 26.3594H81.2656C80.2969 27.6406 78.9688 28.2812 77.2812 28.2812C75.7188 28.2812 74.4375 27.8125 73.4375 26.875C72.4375 25.9375 71.9375 24.7344 71.9375 23.2656C71.9375 21.5781 72.5 20.2969 73.625 19.4219C74.75 18.5469 76.4062 18.1094 78.5938 18.1094H81.1719V16.5469C81.1719 15.8281 80.9844 15.2656 80.6094 14.8594C80.2344 14.4531 79.6562 14.25 78.875 14.25C77.4375 14.25 76.6406 15 76.4844 16.5H77.2969ZM77.7031 24.8906C78.3594 24.8906 78.9531 24.7031 79.4844 24.3281C80.0156 23.9531 80.3906 23.4844 80.6094 22.9219V20.7031H78.4375C77.4688 20.7031 76.7344 20.9219 76.2344 21.3594C75.7344 21.7969 75.4844 22.3906 75.4844 23.1406C75.4844 23.7656 75.6719 24.2656 76.0469 24.6406C76.4219 24.8125 76.9844 24.8906 77.7031 24.8906ZM98.2969 28.2812C96.1094 28.2812 94.3438 27.5469 93 26.0781C91.6562 24.6094 90.9844 22.6719 90.9844 20.2656V19.7031C90.9844 18.0781 91.2812 16.6406 91.875 15.3906C92.4688 14.1406 93.3125 13.1719 94.4062 12.4844C95.5 11.7969 96.7344 11.4531 98.1094 11.4531C100.172 11.4531 101.781 12.1562 102.938 13.5625C104.094 14.9688 104.672 16.9375 104.672 19.4688V21.0625H95.0781C95.2031 22.2188 95.625 23.1406 96.3438 23.8281C97.0625 24.5156 97.9688 24.8594 99.0625 24.8594C100.625 24.8594 101.891 24.2344 102.859 22.9844L104.391 25.2344C103.766 26.1719 102.922 26.9062 101.859 27.4375C100.797 27.9688 99.6094 28.2344 98.2969 28.2812ZM98.0938 14.8906C97.1875 14.8906 96.4375 15.1875 95.8438 15.7812C95.25 16.375 94.875 17.2344 94.7188 18.3594H101.234V18.0625C101.188 16.9688 100.891 16.1406 100.344 15.5781C99.7969 15.1094 99.0469 14.8906 98.0938 14.8906Z" fill="white"/>
</svg>
